<svg id="visual" viewBox="0 0 960 540" width="960" height="540" xmlns="http://www.w3.org/2000/svg" xmlns:xlink="http://www.w3.org/1999/xlink" version="1.1"><g stroke-width="1" stroke-linejoin="bevel"><path d="M453.7 257L534.3 326L520.3 234Z" fill="#007eeb" stroke="#007eeb"></path><path d="M662 291L547.3 193L520.3 234Z" fill="#0081f5" stroke="#0081f5"></path><path d="M520.3 234L430.7 145L453.7 257Z" fill="#005d9a" stroke="#005d9a"></path><path d="M453.7 257L409.7 363L534.3 326Z" fill="#006ab8" stroke="#006ab8"></path><path d="M547.3 193L430.7 145L520.3 234Z" fill="#0066ae" stroke="#0066ae"></path><path d="M453.7 257L320 299L409.7 363Z" fill="#0061a4" stroke="#0061a4"></path><path d="M605 416L648 347L534.3 326Z" fill="#0066ae" stroke="#0066ae"></path><path d="M534.3 326L662 291L520.3 234Z" fill="#007ae0" stroke="#007ae0"></path><path d="M648 347L662 291L534.3 326Z" fill="#007ae0" stroke="#007ae0"></path><path d="M506.3 469L605 416L534.3 326Z" fill="#006ab8" stroke="#006ab8"></path><path d="M430.7 145L320 299L453.7 257Z" fill="#0076d6" stroke="#0076d6"></path><path d="M436.7 474L506.3 469L409.7 363Z" fill="#007eeb" stroke="#007eeb"></path><path d="M409.7 363L506.3 469L534.3 326Z" fill="#0085ff" stroke="#0085ff"></path><path d="M662 291L675 195L547.3 193Z" fill="#0061a4" stroke="#0061a4"></path><path d="M547.3 193L517.3 81L430.7 145Z" fill="#0076d6" stroke="#0076d6"></path><path d="M288 484L436.7 474L409.7 363Z" fill="#006ab8" stroke="#006ab8"></path><path d="M320 299L308 348L409.7 363Z" fill="#007eeb" stroke="#007eeb"></path><path d="M663 67L517.3 81L547.3 193Z" fill="#005d9a" stroke="#005d9a"></path><path d="M715.7 391L726.7 240L662 291Z" fill="#0076d6" stroke="#0076d6"></path><path d="M662 291L726.7 240L675 195Z" fill="#006ec2" stroke="#006ec2"></path><path d="M715.7 391L662 291L648 347Z" fill="#0085ff" stroke="#0085ff"></path><path d="M722.7 419L715.7 391L605 416Z" fill="#006ab8" stroke="#006ab8"></path><path d="M605 416L715.7 391L648 347Z" fill="#005d9a" stroke="#005d9a"></path><path d="M392.7 58L290 156L430.7 145Z" fill="#006ec2" stroke="#006ec2"></path><path d="M430.7 145L290 156L320 299Z" fill="#0081f5" stroke="#0081f5"></path><path d="M190.3 344L234.3 413L308 348Z" fill="#005d9a" stroke="#005d9a"></path><path d="M517.3 81L392.7 58L430.7 145Z" fill="#006ab8" stroke="#006ab8"></path><path d="M436.7 474L539.3 540L506.3 469Z" fill="#005d9a" stroke="#005d9a"></path><path d="M506.3 469L539.3 540L605 416Z" fill="#007ae0" stroke="#007ae0"></path><path d="M619 540L722.7 419L605 416Z" fill="#0061a4" stroke="#0061a4"></path><path d="M829.3 305L781.7 203L726.7 240Z" fill="#007eeb" stroke="#007eeb"></path><path d="M744.7 68L663 67L675 195Z" fill="#006ec2" stroke="#006ec2"></path><path d="M675 195L663 67L547.3 193Z" fill="#007eeb" stroke="#007eeb"></path><path d="M517.3 81L442.7 0L392.7 58Z" fill="#0066ae" stroke="#0066ae"></path><path d="M329 540L401.7 540L436.7 474Z" fill="#006ab8" stroke="#006ab8"></path><path d="M436.7 474L401.7 540L539.3 540Z" fill="#0072cc" stroke="#0072cc"></path><path d="M539.3 540L619 540L605 416Z" fill="#007eeb" stroke="#007eeb"></path><path d="M222.3 105L240.3 163L290 156Z" fill="#007ae0" stroke="#007ae0"></path><path d="M290 156L240.3 163L320 299Z" fill="#007eeb" stroke="#007eeb"></path><path d="M609 0L551.3 0L517.3 81Z" fill="#0076d6" stroke="#0076d6"></path><path d="M551.3 0L442.7 0L517.3 81Z" fill="#007eeb" stroke="#007eeb"></path><path d="M392.7 58L322 55L290 156Z" fill="#0076d6" stroke="#0076d6"></path><path d="M340 0L322 55L392.7 58Z" fill="#0081f5" stroke="#0081f5"></path><path d="M308 348L288 484L409.7 363Z" fill="#006ab8" stroke="#006ab8"></path><path d="M234.3 413L288 484L308 348Z" fill="#006ec2" stroke="#006ec2"></path><path d="M726.7 240L781.7 203L675 195Z" fill="#0061a4" stroke="#0061a4"></path><path d="M829.3 305L726.7 240L715.7 391Z" fill="#0072cc" stroke="#0072cc"></path><path d="M190.3 344L308 348L320 299Z" fill="#0085ff" stroke="#0085ff"></path><path d="M663 67L609 0L517.3 81Z" fill="#006ec2" stroke="#006ec2"></path><path d="M759.7 0L609 0L663 67Z" fill="#0076d6" stroke="#0076d6"></path><path d="M186.3 540L329 540L288 484Z" fill="#005d9a" stroke="#005d9a"></path><path d="M288 484L329 540L436.7 474Z" fill="#007eeb" stroke="#007eeb"></path><path d="M183.3 242L190.3 344L320 299Z" fill="#007ae0" stroke="#007ae0"></path><path d="M240.3 163L183.3 242L320 299Z" fill="#0081f5" stroke="#0081f5"></path><path d="M781.7 203L744.7 68L675 195Z" fill="#006ab8" stroke="#006ab8"></path><path d="M442.7 0L340 0L392.7 58Z" fill="#0072cc" stroke="#0072cc"></path><path d="M322 55L222.3 105L290 156Z" fill="#0072cc" stroke="#0072cc"></path><path d="M240.3 163L124.7 182L183.3 242Z" fill="#005d9a" stroke="#005d9a"></path><path d="M832.3 441L715.7 391L722.7 419Z" fill="#007eeb" stroke="#007eeb"></path><path d="M832.3 441L829.3 305L715.7 391Z" fill="#0061a4" stroke="#0061a4"></path><path d="M781.7 203L852.3 122L744.7 68Z" fill="#005d9a" stroke="#005d9a"></path><path d="M242.3 0L222.3 105L322 55Z" fill="#0085ff" stroke="#0085ff"></path><path d="M829.3 305L843.3 193L781.7 203Z" fill="#006ec2" stroke="#006ec2"></path><path d="M773.7 540L832.3 441L722.7 419Z" fill="#0061a4" stroke="#0061a4"></path><path d="M829.3 305L960 264L843.3 193Z" fill="#007ae0" stroke="#007ae0"></path><path d="M619 540L773.7 540L722.7 419Z" fill="#007ae0" stroke="#007ae0"></path><path d="M832.3 441L871.3 370L829.3 305Z" fill="#0066ae" stroke="#0066ae"></path><path d="M340 0L242.3 0L322 55Z" fill="#0061a4" stroke="#0061a4"></path><path d="M222.3 105L124.7 182L240.3 163Z" fill="#006ec2" stroke="#006ec2"></path><path d="M820.3 0L759.7 0L744.7 68Z" fill="#006ab8" stroke="#006ab8"></path><path d="M744.7 68L759.7 0L663 67Z" fill="#005d9a" stroke="#005d9a"></path><path d="M843.3 193L852.3 122L781.7 203Z" fill="#006ec2" stroke="#006ec2"></path><path d="M960 188L852.3 122L843.3 193Z" fill="#006ab8" stroke="#006ab8"></path><path d="M136.7 60L124.7 182L222.3 105Z" fill="#006ec2" stroke="#006ec2"></path><path d="M183.3 242L91.7 253L190.3 344Z" fill="#006ab8" stroke="#006ab8"></path><path d="M234.3 413L186.3 540L288 484Z" fill="#0061a4" stroke="#0061a4"></path><path d="M105.7 436L186.3 540L234.3 413Z" fill="#0085ff" stroke="#0085ff"></path><path d="M105.7 436L234.3 413L190.3 344Z" fill="#0085ff" stroke="#0085ff"></path><path d="M124.7 182L91.7 253L183.3 242Z" fill="#006ec2" stroke="#006ec2"></path><path d="M74.7 365L105.7 436L190.3 344Z" fill="#0085ff" stroke="#0085ff"></path><path d="M0 193L0 291L91.7 253Z" fill="#0076d6" stroke="#0076d6"></path><path d="M242.3 0L136.7 60L222.3 105Z" fill="#007ae0" stroke="#007ae0"></path><path d="M852.3 122L820.3 0L744.7 68Z" fill="#005d9a" stroke="#005d9a"></path><path d="M91.7 253L74.7 365L190.3 344Z" fill="#006ab8" stroke="#006ab8"></path><path d="M0 540L142.7 540L105.7 436Z" fill="#0061a4" stroke="#0061a4"></path><path d="M105.7 436L142.7 540L186.3 540Z" fill="#0061a4" stroke="#0061a4"></path><path d="M960 376L960 264L871.3 370Z" fill="#007ae0" stroke="#007ae0"></path><path d="M871.3 370L960 264L829.3 305Z" fill="#0076d6" stroke="#0076d6"></path><path d="M852.3 122L960 81L820.3 0Z" fill="#0066ae" stroke="#0066ae"></path><path d="M960 376L871.3 370L960 465Z" fill="#0076d6" stroke="#0076d6"></path><path d="M773.7 540L884.3 540L832.3 441Z" fill="#0085ff" stroke="#0085ff"></path><path d="M960 465L871.3 370L832.3 441Z" fill="#005d9a" stroke="#005d9a"></path><path d="M960 264L960 188L843.3 193Z" fill="#0061a4" stroke="#0061a4"></path><path d="M884.3 540L960 465L832.3 441Z" fill="#0072cc" stroke="#0072cc"></path><path d="M91.7 253L0 291L74.7 365Z" fill="#005d9a" stroke="#005d9a"></path><path d="M74.7 365L0 461L105.7 436Z" fill="#0081f5" stroke="#0081f5"></path><path d="M0 193L91.7 253L124.7 182Z" fill="#0066ae" stroke="#0066ae"></path><path d="M960 188L960 81L852.3 122Z" fill="#006ec2" stroke="#006ec2"></path><path d="M0 291L0 350L74.7 365Z" fill="#007eeb" stroke="#007eeb"></path><path d="M0 56L0 193L124.7 182Z" fill="#007ae0" stroke="#007ae0"></path><path d="M242.3 0L73.7 0L136.7 60Z" fill="#005d9a" stroke="#005d9a"></path><path d="M136.7 60L0 56L124.7 182Z" fill="#006ab8" stroke="#006ab8"></path><path d="M884.3 540L960 540L960 465Z" fill="#0081f5" stroke="#0081f5"></path><path d="M0 350L0 461L74.7 365Z" fill="#0085ff" stroke="#0085ff"></path><path d="M960 81L960 0L820.3 0Z" fill="#007eeb" stroke="#007eeb"></path><path d="M73.7 0L0 56L136.7 60Z" fill="#0072cc" stroke="#0072cc"></path><path d="M0 461L0 540L105.7 436Z" fill="#006ec2" stroke="#006ec2"></path><path d="M73.7 0L0 0L0 56Z" fill="#0081f5" stroke="#0081f5"></path></g></svg>