<?xml version="1.0" encoding="UTF-8"?>
<svg id="Capa_1" data-name="Capa 1" xmlns="http://www.w3.org/2000/svg" viewBox="0 0 1366.18 378.12">
  <defs>
    <style>
      .cls-1 {
        fill: #8bc34a;
      }

      .cls-2 {
        fill: #020202;
      }

      .cls-3 {
        fill: #5a7a30;
      }

      .cls-4 {
        fill: #749e3e;
      }
    </style>
  </defs>
  <path class="cls-2" d="M.18,57s-3.89,127.11,25,193c30.32,69.14,95.44,76.87,183,61,171-31,133-185,283-163s178,231,285,211,98.67-190.33,146-184c47.33,6.33,8.47,106.51,78,160,39,30,122.72,49.86,198,41,119-14-3.75-113.81,99-118,49-2,69,65,69,65V57H.18Z"/>
  <path class="cls-3" d="M.18,46s-3.89,127.11,25,193c30.32,69.14,95.44,76.87,183,61,171-31,133-185,283-163s178,231,285,211,98.67-190.33,146-184c47.33,6.33,8.47,106.51,78,160,39,30,122.72,49.86,198,41,119-14-3.75-113.81,99-118,49-2,69,65,69,65V46H.18Z"/>
  <path class="cls-4" d="M.18,25s-3.89,127.11,25,193c30.32,69.14,95.44,76.87,183,61,171-31,133-185,283-163s178,231,285,211,98.67-190.33,146-184c47.33,6.33,8.47,106.51,78,160,39,30,122.72,49.86,198,41,119-14-3.75-113.81,99-118,49-2,69,65,69,65V25H.18Z"/>
  <path class="cls-1" d="M.18,0S-3.72,127.11,25.18,193c30.32,69.14,95.44,76.87,183,61,171-31,133-185,283-163s178,231,285,211,98.67-190.33,146-184,8.47,106.51,78,160c39,30,122.72,49.86,198,41,119-14-3.75-113.81,99-118,49-2,69,65,69,65V0H.18Z"/>
</svg>