<?xml version="1.0" encoding="utf-8"?>
<!-- Generator: Adobe Illustrator 27.0.0, SVG Export Plug-In . SVG Version: 6.00 Build 0)  -->
<svg version="1.1" id="Capa_1" xmlns="http://www.w3.org/2000/svg" xmlns:xlink="http://www.w3.org/1999/xlink" x="0px" y="0px"
	 viewBox="0 0 837.4 1002" style="enable-background:new 0 0 837.4 1002;" xml:space="preserve">
<style type="text/css">
	.st0{fill:#5A7A30;}
	.st1{fill:#749E3E;}
	.st2{fill:#8BC34A;}
</style>
<path d="M397.3,0C744.5,180.4,567,407.5,545,444.5c-66.7,112.2-247,305.9-179,377c12.3,12.9,32.9,23,37,47
	c6.4,37.1-30.6,83.6-74,101c-52.5,21-85.8-11.8-158-17c-43.9-3.1-105.3,5.2-182,49.5h832.7V0H397.3z"/>
<path class="st0" d="M413,0c347.2,180.4,169.7,407.5,147.7,444.5c-66.7,112.2-247,305.9-179,377c12.3,12.9,32.9,23,37,47
	c6.4,37.1-30.6,83.6-74,101c-52.5,21-85.8-11.8-158-17c-43.9-3.1-105.3,5.2-182,49.5h832.7V0H413z"/>
<path class="st1" d="M450,0c347.2,183.4,170,409,148,446c-66.7,112.2-247,305.9-179,377c12.3,12.9,32.9,23,37,47
	c6.4,37.1-30.6,83.6-74,101c-52.5,21-85.8-11.8-158-17c-43.9-3.1-105.3,3.7-182,48h795.4V0H450z"/>
<path class="st2" d="M489,0c347.2,180.4,169.7,407.5,147.7,444.5c-66.7,112.2-247,305.9-179,377c12.3,12.9,32.9,23,37,47
	c6.4,37.1-30.6,83.6-74,101c-52.5,21-85.8-11.8-158-17c-43.9-3.1-105.3,5.2-182,49.5h756.7V0H489z"/>
</svg>
