<?xml version="1.0" encoding="UTF-8"?>
<svg id="Capa_1" data-name="Capa 1" xmlns="http://www.w3.org/2000/svg" viewBox="0 0 848.39 1002">
  <defs>
    <style>
      .cls-1 {
        fill: #8bc34a;
      }

      .cls-2 {
        fill: #5a7a30;
      }

      .cls-3 {
        fill: #749e3e;
      }
    </style>
  </defs>
  <path d="M408.29,0c347.22,180.45,169.71,407.5,147.71,444.5-66.68,112.15-246.99,305.9-179,377,12.33,12.9,32.88,22.99,37,47,6.37,37.1-30.57,83.59-74,101-52.46,21.04-85.76-11.84-158-17-43.85-3.13-105.33,5.22-182,49.5H832.72V0H408.29Z"/>
  <path class="cls-2" d="M423.96,0c347.22,180.45,169.71,407.5,147.71,444.5-66.68,112.15-246.99,305.9-179,377,12.33,12.9,32.88,22.99,37,47,6.37,37.1-30.57,83.59-74,101-52.46,21.04-85.76-11.84-158-17-43.85-3.13-105.33,5.22-182,49.5H848.39V0H423.96Z"/>
  <path class="cls-3" d="M461,0c347.22,183.45,170,409,148,446-66.68,112.15-246.99,305.9-179,377,12.33,12.9,32.88,22.99,37,47,6.37,37.1-30.57,83.59-74,101-52.46,21.04-85.76-11.84-158-17-43.85-3.13-105.33,3.72-182,48H848.39V0H461Z"/>
  <path class="cls-1" d="M499.96,0c347.22,180.45,169.71,407.5,147.71,444.5-66.68,112.15-246.99,305.9-179,377,12.33,12.9,32.88,22.99,37,47,6.37,37.1-30.57,83.59-74,101-52.46,21.04-85.76-11.84-158-17-43.85-3.13-105.33,5.22-182,49.5H848.39V0H499.96Z"/>
</svg>