<?xml version="1.0" encoding="utf-8"?>
<!-- Generator: Adobe Illustrator 27.0.0, SVG Export Plug-In . SVG Version: 6.00 Build 0)  -->
<svg version="1.1" id="Capa_1" xmlns="http://www.w3.org/2000/svg" xmlns:xlink="http://www.w3.org/1999/xlink" x="0px" y="0px"
	 viewBox="0 0 800 800" style="enable-background:new 0 0 800 800;" xml:space="preserve">
<style type="text/css">
	.st0{fill-rule:evenodd;clip-rule:evenodd;fill:#FFFFFF;stroke:#FFFFFF;stroke-width:64;stroke-miterlimit:10;}
</style>
<g id="Page-1">
	<g id="Dribbble-Light-Preview" transform="translate(-260.000000, -6559.000000)">
		<g id="icons" transform="translate(56.000000, 160.000000)">
			<path id="arrow_x5F_up-_x5B__x23_367_x5D_" class="st0" d="M752.3,6800.8V6646l-81.2,79.4l-35.5-34.6
				c52-52,85.6-86.1,138.1-138.6c50.6,50.6,89.2,89.5,138.4,138.6l-33,34.6l-77.7-79.4v154.8c0,135.3-109.7,245-245,245l0,0
				c-135.3,0-245-109.7-245-245v-245h49v245c0,108.2,87.7,196,196,196l0,0C664.5,6996.8,752.3,6909,752.3,6800.8"/>
		</g>
	</g>
</g>
</svg>
