<svg width="24" height="24" viewBox="0 0 24 24" fill="none" xmlns="http://www.w3.org/2000/svg">
<g id="&#240;&#159;&#166;&#134; icon &#34;star&#34;">
<path id="Vector" d="M17.0759 20.3558C16.9209 20.3564 16.768 20.3198 16.63 20.2491L11.6865 17.661L6.74298 20.2491C6.58245 20.3335 6.40146 20.3712 6.22059 20.3579C6.03971 20.3446 5.86621 20.2807 5.71979 20.1737C5.57338 20.0667 5.45993 19.9207 5.39234 19.7524C5.32475 19.5841 5.30574 19.4002 5.33746 19.2216L6.30678 13.7644L2.31319 9.8871C2.18859 9.76276 2.1002 9.60684 2.05751 9.43607C2.01481 9.2653 2.01943 9.08612 2.07086 8.91778C2.12704 8.74551 2.23038 8.59243 2.36916 8.47592C2.50795 8.35941 2.67661 8.28414 2.856 8.25864L8.38113 7.45411L10.8141 2.4815C10.8935 2.31761 11.0174 2.1794 11.1717 2.08269C11.326 1.98598 11.5044 1.93469 11.6865 1.93469C11.8686 1.93469 12.047 1.98598 12.2013 2.08269C12.3556 2.1794 12.4795 2.31761 12.5589 2.4815L15.021 7.44441L20.5461 8.24895C20.7255 8.27445 20.8941 8.34972 21.0329 8.46623C21.1717 8.58274 21.2751 8.73581 21.3312 8.90808C21.3827 9.07643 21.3873 9.2556 21.3446 9.42637C21.3019 9.59714 21.2135 9.75307 21.0889 9.8774L17.0953 13.7547L18.0646 19.212C18.0992 19.3937 18.0811 19.5815 18.0124 19.7533C17.9437 19.925 17.8273 20.0735 17.6769 20.1813C17.5014 20.3043 17.29 20.3656 17.0759 20.3558Z" fill="#231F20"/>
</g>
</svg>
