<svg width="40" height="40" viewBox="0 0 40 40" fill="none" xmlns="http://www.w3.org/2000/svg">
<path d="M33.75 22.5C34.0815 22.5 34.3995 22.6317 34.6339 22.8661C34.8683 23.1005 35 23.4185 35 23.75V33.7475C35 34.079 34.8683 34.397 34.6339 34.6314C34.3995 34.8658 34.0815 34.9975 33.75 34.9975H23.75C23.4185 34.9975 23.1005 34.8658 22.8661 34.6314C22.6317 34.397 22.5 34.079 22.5 33.7475V23.75C22.5 23.4185 22.6317 23.1005 22.8661 22.8661C23.1005 22.6317 23.4185 22.5 23.75 22.5H33.75ZM16.25 22.5C16.5815 22.5 16.8995 22.6317 17.1339 22.8661C17.3683 23.1005 17.5 23.4185 17.5 23.75V33.7475C17.5 34.079 17.3683 34.397 17.1339 34.6314C16.8995 34.8658 16.5815 34.9975 16.25 34.9975H6.2525C5.92098 34.9975 5.60304 34.8658 5.36862 34.6314C5.1342 34.397 5.0025 34.079 5.0025 33.7475V23.75C5.0025 23.4185 5.1342 23.1005 5.36862 22.8661C5.60304 22.6317 5.92098 22.5 6.2525 22.5H16.25ZM33.75 5C34.0815 5 34.3995 5.1317 34.6339 5.36612C34.8683 5.60054 35 5.91848 35 6.25V16.25C35 16.5815 34.8683 16.8995 34.6339 17.1339C34.3995 17.3683 34.0815 17.5 33.75 17.5H23.75C23.4185 17.5 23.1005 17.3683 22.8661 17.1339C22.6317 16.8995 22.5 16.5815 22.5 16.25V6.25C22.5 5.91848 22.6317 5.60054 22.8661 5.36612C23.1005 5.1317 23.4185 5 23.75 5H33.75ZM16.25 5C16.5815 5 16.8995 5.1317 17.1339 5.36612C17.3683 5.60054 17.5 5.91848 17.5 6.25V16.25C17.5 16.5815 17.3683 16.8995 17.1339 17.1339C16.8995 17.3683 16.5815 17.5 16.25 17.5H6.2525C5.92098 17.5 5.60304 17.3683 5.36862 17.1339C5.1342 16.8995 5.0025 16.5815 5.0025 16.25V6.25C5.0025 5.91848 5.1342 5.60054 5.36862 5.36612C5.60304 5.1317 5.92098 5 6.2525 5H16.25Z" fill="#0006"/>
</svg>
