<?xml version="1.0" encoding="utf-8"?>
<!-- Svg Vector Icons : http://www.onlinewebfonts.com/icon -->
<!DOCTYPE svg PUBLIC "-//W3C//DTD SVG 1.1//EN" "http://www.w3.org/Graphics/SVG/1.1/DTD/svg11.dtd">
<svg version="1.1" xmlns="http://www.w3.org/2000/svg" xmlns:xlink="http://www.w3.org/1999/xlink" x="0px" y="0px" viewBox="0 0 256 256" enable-background="new 0 0 256 256" xml:space="preserve">
<metadata> Svg Vector Icons : http://www.onlinewebfonts.com/icon </metadata>
<g><g><g><path fill="#000000" d="M34.9,33.4C22.1,46.3,11.1,57.7,10.6,58.9c-0.5,1.2-0.7,2.9-0.5,3.7c0.2,1,13.6,14.9,32.2,33.4L74,127.9l-31.9,31.9C8.8,193.2,8.9,193,10.9,196.6c0.7,1.2,39.8,40.7,45.2,45.6c5.9,5.3,3.3,7.2,39.4-28.9l31.9-31.9l32.2,32.2c34.7,34.7,33.7,33.9,37.9,31.1c2.8-1.8,46.3-45.4,47.4-47.4c2.3-4.4,3.3-3.3-31.2-37.8l-32.2-32.2l31.7-31.9c18.6-18.6,32-32.5,32.2-33.4c0.2-0.9,0-2.6-0.5-3.7c-0.5-1.2-11.3-12.5-24-25.1l-23.1-23h-3h-3.1L160,41.9l-31.9,31.9L96.3,41.9L64.4,10.1h-3.1h-3L34.9,33.4z"/></g></g></g>
</svg>