<svg width="24" height="24" viewBox="0 0 24 24" fill="none" xmlns="http://www.w3.org/2000/svg">
<path d="M17.0212 20.3558C16.8662 20.3564 16.7133 20.3198 16.5754 20.2491L11.6318 17.661L6.68829 20.2491C6.52776 20.3335 6.34678 20.3712 6.1659 20.3579C5.98502 20.3446 5.81152 20.2807 5.6651 20.1737C5.51869 20.0667 5.40524 19.9207 5.33765 19.7524C5.27007 19.5841 5.25105 19.4002 5.28278 19.2216L6.2521 13.7644L2.2585 9.8871C2.1339 9.76276 2.04551 9.60684 2.00282 9.43607C1.96013 9.2653 1.96474 9.08612 2.01617 8.91778C2.07235 8.74551 2.1757 8.59243 2.31448 8.47592C2.45326 8.35941 2.62192 8.28414 2.80132 8.25864L8.32644 7.45411L10.7594 2.4815C10.8388 2.31761 10.9627 2.1794 11.117 2.08269C11.2713 1.98598 11.4497 1.93469 11.6318 1.93469C11.8139 1.93469 11.9923 1.98598 12.1466 2.08269C12.3009 2.1794 12.4248 2.31761 12.5042 2.4815L14.9663 7.44441L20.4914 8.24895C20.6708 8.27445 20.8395 8.34972 20.9782 8.46623C21.117 8.58274 21.2204 8.73581 21.2766 8.90808C21.328 9.07643 21.3326 9.2556 21.2899 9.42637C21.2472 9.59714 21.1588 9.75307 21.0342 9.8774L17.0406 13.7547L18.0099 19.212C18.0445 19.3937 18.0264 19.5815 17.9577 19.7533C17.889 19.925 17.7726 20.0735 17.6222 20.1813C17.4467 20.3043 17.2353 20.3656 17.0212 20.3558Z" fill="#00FD0A"/>
</svg>
