<svg width="94" height="92" viewBox="0 0 94 92" fill="none" xmlns="http://www.w3.org/2000/svg">
<path d="M42.9949 84.9999C41.0246 85.0055 39.0728 84.6251 37.2526 83.8808C35.4325 83.1365 33.7801 82.0432 32.3914 80.6641L12.3944 60.9332C9.55977 58.1413 8 54.4221 8 50.471C8 46.5199 9.55977 42.8006 12.3944 40.0037C18.0585 34.415 27.9371 34.415 33.6013 40.0037L39.5404 45.8638L54.8831 18.6204C56.3218 16.0599 58.4982 13.9782 61.1367 12.6388C63.7752 11.2994 66.7572 10.7627 69.705 11.0965C72.6529 11.4303 75.4341 12.6196 77.6965 14.514C79.9589 16.4083 81.6007 18.9224 82.4141 21.7379C82.962 23.6065 83.1279 25.564 82.9022 27.4964C82.6765 29.4288 82.0636 31.2977 81.0993 32.9944L56.103 77.3888C54.7981 79.6902 52.8966 81.6078 50.5932 82.9453C48.2898 84.2827 45.6675 84.9918 42.9949 84.9999ZM22.9978 45.5382C21.658 45.5382 20.4082 46.0513 19.4633 46.9835C18.5185 47.9158 17.9985 49.149 17.9985 50.471C17.9985 51.7929 18.5185 53.0261 19.4633 53.9584L39.4604 73.6892C40.0083 74.227 40.675 74.6324 41.4082 74.8737C42.1413 75.115 42.9211 75.1856 43.6866 75.08C44.452 74.9745 45.1823 74.6956 45.8203 74.2652C46.4583 73.8348 46.9867 73.2645 47.3642 72.5991L72.3606 28.2047C72.6815 27.6396 72.8856 27.0173 72.9612 26.3738C73.0367 25.7303 72.9821 25.0784 72.8005 24.4558C72.6213 23.8307 72.3176 23.247 71.9074 22.7389C71.4971 22.2307 70.9883 21.8083 70.4109 21.4962C69.2494 20.8845 67.8924 20.7422 66.6265 21.0993C65.3607 21.4564 64.285 22.285 63.6269 23.4101L41.845 62.0875L26.5373 46.9835C26.0732 46.524 25.5215 46.1597 24.914 45.9116C24.3065 45.6636 23.6553 45.5367 22.9978 45.5382Z" fill="#8BC34A"/>
</svg>
